<svg xmlns="http://www.w3.org/2000/svg" viewBox="0 0 238 87"><path fill="#fff" d="M0 83.692h2.704V3.317H0v80.375zm36.886-73.17c-.251.486-.47.767-.435 1.137.033.374.425.633.608 1.014.169-.435.45-.766.417-1.104-.036-.345-.51-.802-.59-1.046m6.476 0c.248.485.471.766.435 1.136-.036.374-.424.633-.607 1.014-.17-.435-.45-.766-.417-1.104.035-.345.503-.802.59-1.046m-10.203-.281a.442.442 0 0 0 .44-.435.444.444 0 0 0-.44-.443.44.44 0 0 0 0 .877m.292.626a.437.437 0 0 0-.874 0c0 .244.194.442.435.442.24 0 .439-.198.439-.442m.214 1.06a.437.437 0 0 0-.874 0 .437.437 0 0 0 .874 0m1.914-3.771a.435.435 0 1 0 0-.87.434.434 0 1 0 0 .87m-1.085.337a.444.444 0 0 0 .439-.443.442.442 0 0 0-.44-.435.44.44 0 0 0 0 .878m-.856.745a.435.435 0 1 0 0-.87.44.44 0 0 0-.439.434c0 .245.202.436.439.436m3.087-.977a.44.44 0 0 0 .435-.442.441.441 0 0 0-.435-.435.442.442 0 0 0-.439.435c0 .244.198.442.439.442m1.085.316a.439.439 0 0 0 0-.877.439.439 0 0 0 0 .877m1.018.478c.241 0 .439-.198.439-.442a.44.44 0 0 0-.439-.436.442.442 0 0 0-.438.436c0 .244.2.442.438.442m7.807.751a.437.437 0 0 0 .874 0 .438.438 0 0 0-.435-.442.441.441 0 0 0-.439.442m.583.625a.437.437 0 0 0-.439.436c0 .244.202.442.44.442.24 0 .438-.198.438-.442a.435.435 0 0 0-.439-.436m-.214 1.061a.434.434 0 1 0 0 .87.435.435 0 1 0 0-.87m-2.353-3.336a.435.435 0 1 0 0-.87.437.437 0 0 0-.439.435c0 .237.202.435.44.435m1.088.337a.44.44 0 1 0-.439-.442c0 .244.198.442.439.442m.857.745c.237 0 .438-.191.438-.436a.44.44 0 0 0-.877 0c0 .245.198.436.439.436M43.51 8.26a.439.439 0 1 0 0-.878.439.439 0 0 0 0 .878m-1.086.316a.439.439 0 1 0-.438-.442c0 .244.201.442.438.442m-1.457.035c0 .245.194.442.435.442a.439.439 0 0 0 0-.877.437.437 0 0 0-.435.435m-1.598 2.374h.493V9.113a1.714 1.714 0 0 1-.493-.155v2.028zm1.496-2.03a1.833 1.833 0 0 1-.493.155v1.874h.493V8.956zm-1.029-2.065V5.773a1.39 1.39 0 0 0-1.075 1.118h1.075zm.57 0h1.067a1.396 1.396 0 0 0-1.068-1.118v1.118zm-1.63.534a1.377 1.377 0 0 0 2.686 0h-2.686zm2.093-1.819c-.313-.244-.55-.597-.597-.974.36.068.759.32.992.629V3.758c-.233.309-.633.571-.992.633.043-.364.266-.702.572-1.083H39.39c.305.381.528.72.568 1.083-.356-.062-.759-.324-.99-.633V5.26c.231-.31.634-.561.99-.63-.047.378-.28.73-.597.975h1.507zm1.612 30.055c-1.377-.346-3.017-.935-4.553-1.63l.004-.021c.046-.31-.072-.662-.313-.928-.234-.273-.55-.428-.867-.428-.14 0-.28.036-.417.083a6.039 6.039 0 0 1-.633-.65 7.496 7.496 0 0 1-1.348-2.346 7.831 7.831 0 0 1-.4-1.56c-.075.442-.575 1.032-1.438 1.046.01-.09.004-.316-.072-.338-.227.248-.568.522-1.349.248.123.608.292 1.205.507 1.784a10.482 10.482 0 0 0 1.975 3.32c.284.316.579.61.884.887-.003.054-.01.12-.01.173 0 .324.313.838.762 1.054.367.176.759.133 1.122-.126.665.36 1.521.69 2.438.95 1.032.28 2.028.442 2.809.442.672 0 1.557-.317 2.434-.864.346-.226.677-.47.921-.704a.548.548 0 0 0 .094-.09c-.68.097-1.712-.09-2.55-.302m-5.042-2.072-.147-.104c-.27-.205-.49-.205-.73.004-.115.1-.22.212-.317.33l-.15.17.1.086c.284.223.323.467.24.615a.224.224 0 0 1-.143.115c-.137.032-.335-.015-.54-.133l-.107-.065-.065.104c-.015.03-.033.05-.054.08-.022.035-.047.068-.072.11-.119.213-.176.375-.176.508 0 .032.003.068.014.097.04.155.166.23.273.288l.069.043c.126.083.305.19.439.259-.256.14-.504.154-.752.036-.378-.19-.619-.619-.619-.83 0-.328.148-.745.414-1.166l.043-.061-.04-.072a2.673 2.673 0 0 1-.197-.37c.144.017.287.039.428.075l.072.014.05-.05c.162-.183.744-.766 1.28-.766.245 0 .493.13.68.338.14.162.226.352.252.529-.076-.05-.162-.123-.245-.184m.888 2.618a.59.59 0 0 1 0-1.18.59.59 0 0 1 0 1.18m2.579.802a.537.537 0 0 1-.532-.54.54.54 0 0 1 .532-.542.542.542 0 1 1 0 1.082m.714 2.719a.86.86 0 0 0-.277.043v-1.65a11.22 11.22 0 0 1-2.409-.368v2.025a.763.763 0 0 0-.291-.05c-.58 0-.939.485-.939.942 0 .413.252.805.468 1.06.107-.262.208-.463.348-.463.288 0 .159 1.424.997 1.46a.689.689 0 0 0-.044.23c0 .36.295.654.659.654a.655.655 0 0 0 .614-.884c.838-.036.698-1.46.986-1.46.144 0 .234.187.36.464.215-.256.467-.648.467-1.061 0-.457-.36-.942-.939-.942m-1.488 3.596a.37.37 0 0 1-.367-.367c0-.201.165-.363.367-.363.204 0 .366.162.366.363a.368.368 0 0 1-.366.367m1.963-2.079c-.1-.183-.245-.288-.37-.288-.561 0-.342 1.482-1.015 1.482-.29 0-.449-.19-.449-.392 0-.212.147-.277.147-.446 0-.165-.13-.23-.276-.23-.144 0-.277.065-.277.23 0 .17.147.234.147.446 0 .201-.158.392-.45.392-.672 0-.449-1.482-1.014-1.482-.122 0-.27.105-.366.288-.115-.212-.177-.42-.177-.575 0-.274.209-.655.648-.655.751 0 .575 1.025.935 1.025.162 0 .277-.097.277-.252 0-.294-.522-.56-.522-.985 0-.42.381-.77.799-1.108.417.339.798.687.798 1.108 0 .424-.522.69-.522.985 0 .155.115.252.277.252.36 0 .184-1.025.935-1.025.439 0 .648.381.648.655 0 .154-.065.363-.173.575"/><path fill="#fff" d="M60.97 41.708a.176.176 0 0 0-.215-.104c-1.931.561-4.326-1.032-6.638-2.578-1.95-1.299-3.79-2.529-5.366-2.529-.586 0-1.104.126-1.55.364-.55.309-.964.787-1.226 1.427a8.649 8.649 0 0 1-.77 1.446c-.266.42-.467.723-.467 1.111 0 .31.136.59.406.856.223.227.547.442 1.01.687.101.058.202.108.3.147.377.191.618.317.66.536-.758.331-1.747.612-2.869.81a23.928 23.928 0 0 1-4.117.334c-1.468 0-2.856-.112-4.118-.335-1.126-.197-2.115-.478-2.88-.816.032-.316.27-.45.686-.647.101-.047.198-.09.302-.148.382-.201.745-.399.99-.625.273-.238.398-.49.398-.799 0-.388-.194-.69-.46-1.111-.223-.356-.507-.798-.77-1.446-.262-.64-.675-1.118-1.23-1.42a3.247 3.247 0 0 0-1.542-.363c-1.579 0-3.424 1.222-5.373 2.52-2.308 1.547-4.703 3.14-6.635 2.579a.184.184 0 0 0-.219.112.18.18 0 0 0 .1.219c.587.259 1.105.665 1.605 1.05.69.543 1.352 1.054 2.075 1.054.683 0 1.424-.216 2.32-.68.772-.406 1.581-.957 2.362-1.489 1.525-1.04 3.1-2.114 4.596-2.233-.159.155-.31.295-.453.42-.443.393-.824.738-.824 1.425 0 .55.183.935.446 1.478.075.154.162.327.252.532.165.367.233.669.334 1.075.04.176.094.37.155.604.093.36.273 1.025 1.37 1.58 1.27.646 3.456.977 6.513.977 3.045 0 5.24-.33 6.509-.978 1.093-.554 1.273-1.219 1.37-1.579.06-.233.111-.428.15-.604.101-.406.17-.708.335-1.075.122-.273.245-.493.349-.687.223-.428.41-.766.41-1.259 0-.694-.403-1.053-.867-1.474-.147-.133-.305-.273-.467-.442 1.5.118 3.07 1.194 4.596 2.24.78.525 1.59 1.083 2.362 1.482.9.47 1.637.687 2.32.687.72 0 1.38-.511 2.075-1.058.503-.38 1.021-.787 1.604-1.046a.183.183 0 0 0 .097-.227M49.378 26.263c-.216-.155-.561-.478-.74-.863-.235-.471-1.188-2.36-1.339-2.607-.122-.209-.187-.4-.187-.561 0-.198.097-.36.205-.5.076-.097.284-.302.356-.421.065-.097.119-.17.177-.223-.35-.604-.709-1.06-1.166-1.575a9.502 9.502 0 0 0-1.873-1.622c.37-.234.74-.583.74-1.158 0-.33-.14-.604-.384-.816.385-1.237 1.079-2.726 1.668-3.377l-1.24-.522c.32.486.345 1.061.27 1.392-.32-.22-.601-.528-.687-.935-.065.374-.27.982-.457 1.349.36-.17.644-.245 1.007-.097-.205.287-.745.715-1.557.525-.439-.112-.878-.346-.863-.687.01-.198.158-.443.438-.421.274.032.288.442.202.622.356-.201.719-1.233.169-1.388-.435-.126-.835.475-.978.931-.083-.553-.313-1.078-.752-1.053-.575.043-.385 1.097-.187 1.363.036-.37.234-.568.406-.554.151.014.353.119.32.457-.04.33-.517.54-1.064.54-.521 0-1.442-.163-1.532-1.173.342.064.877.316 1.104.661a6.618 6.618 0 0 1 0-1.686c-.28.406-.759.611-1.086.662.097-.436.467-.892.903-1.162h-2.252c.428.27.806.726.9 1.162-.331-.058-.792-.263-1.069-.662.072.64.072 1.075 0 1.686.223-.338.741-.597 1.083-.661-.086 1.01-1.007 1.172-1.532 1.172-.543 0-1.021-.209-1.061-.54-.032-.337.169-.442.32-.456.17-.014.374.183.406.554.202-.266.385-1.32-.183-1.363-.442-.025-.672.5-.752 1.053-.143-.456-.546-1.057-.985-.93-.55.154-.18 1.186.17 1.387-.08-.18-.066-.59.204-.622.277-.022.428.223.439.42.018.342-.42.576-.863.688-.81.19-1.342-.238-1.554-.518.367-.162.662-.08 1.018.09a6.09 6.09 0 0 1-.457-1.349c-.09.414-.37.723-.701.95a1.926 1.926 0 0 1 .27-1.407l-1.237.522c.59.65 1.283 2.147 1.665 3.384-.234.22-.367.485-.367.809 0 .575.367.924.737 1.158a9.605 9.605 0 0 0-1.874 1.622c-.841.95-1.51 2.057-1.974 3.294.17.176.914.989 1.083 1.208.309.392.496.78.503 1.083.022.56.14.787.439 1.158.093.118.226.56.24.83h6.154v6.7c-.238.022-.497.083-.705.338.708.288 1.388.54 2.064.752.068-.44.155-.705.381-.979 0 0-.895-.09-1.377-.111v-6.7H46.4a8.457 8.457 0 0 1-.489 2.654 7.597 7.597 0 0 1-1.348 2.345 6.251 6.251 0 0 1-2.003 1.575c-.119.061-.112.148-.234.202a1.55 1.55 0 0 0-.295.543 2.435 2.435 0 0 0-.14.61c.284.084.435.134.705.195 2.114.529 2.636.374 2.754.28h.004c.475-.363.92-.783 1.33-1.247a10.588 10.588 0 0 0 1.978-3.323c.482-1.284.723-2.654.723-4.06 0-.26.01-.338-.007-.597m-9.357.464h-6.16c.01-.957.172-1.885.489-2.755a7.597 7.597 0 0 1 1.348-2.345 6.341 6.341 0 0 1 2-1.582 5.449 5.449 0 0 1 2.323-.568v7.25zm.111-10.264c-2.057 0-3.47.604-4.297 1.155-.471-.28-.676-.558-.676-.885 0-1.162 3.297-1.266 4.97-1.266h.003c1.672 0 4.974.104 4.974 1.266 0 .327-.209.604-.687.885-.824-.55-2.237-1.155-4.287-1.155m.252 10.264v-7.243c.755.036 1.489.22 2.176.561a6.275 6.275 0 0 1 2.003 1.582 7.597 7.597 0 0 1 1.348 2.345 8.41 8.41 0 0 1 .493 2.755h-6.02z"/><path fill="#fff" d="M45.452 25.546c.1.065.072.23-.069.22a6.836 6.836 0 0 0-1.154-3.057c.004-.007.01-.007.018-.014a.398.398 0 0 0 .255-.324.389.389 0 0 0-.385.176 2.257 2.257 0 0 1-.133-.176 5.855 5.855 0 0 0-1.305-1.215 4.77 4.77 0 0 0-1.453-.666c.007-.118.162-.133.227-.028.014-.198-.148-.288-.248-.252-.047.018-.094.06-.105.147a.389.389 0 0 0-.273-.14.435.435 0 0 0 .083.288c-.076 0-.13.032-.159.075-.046.094.015.266.213.28-.094-.068-.058-.215.064-.208v2.352a.397.397 0 0 0-.395.097c.126.126.273.14.395.108v2.557c-.133.007-.161-.148-.06-.22-.195 0-.274.17-.234.26.028.064.09.107.194.093a.43.43 0 0 0-.097.273c.115 0 .201-.05.27-.104-.015.111.035.158.09.194.093.043.265-.036.265-.23-.072.097-.226.068-.226-.05h1.776a.405.405 0 0 0 .105.388.396.396 0 0 0 .104-.388h1.978c.01.118-.148.161-.22.064.004.187.184.266.266.216.065-.029.105-.083.094-.194a.407.407 0 0 0 .27.097.41.41 0 0 0-.108-.266c.108.007.165-.036.19-.1.04-.09-.04-.26-.233-.253m-1.705-3.117c-.05.046-.072.118-.057.169.021.054.068.111.18.118a.406.406 0 0 0-.14.252.47.47 0 0 0 .283-.061c-.025.104.011.165.061.201.043.029.105.029.159 0 .456.737.773 1.583.902 2.446a.353.353 0 0 0-.22-.065c.004.13.051.22.123.284h-1.503c.01-.1-.04-.183-.104-.205-.058-.022-.133-.007-.202.068a.412.412 0 0 0-.118-.259.394.394 0 0 0-.12.26c-.064-.076-.143-.09-.2-.069-.065.022-.112.104-.105.205h-1.28a.418.418 0 0 0 .09-.262.377.377 0 0 0-.259.1v-2.09c.097.015.19-.024.209-.096.021-.054.014-.126-.076-.202a.359.359 0 0 0 .266-.122.425.425 0 0 0-.266-.111c.09-.069.097-.14.076-.205-.018-.062-.112-.12-.209-.097v-1.763a.42.42 0 0 0 .227.09.467.467 0 0 0-.062-.251c.396.133.788.323 1.155.568.435.295.841.661 1.19 1.097"/><path fill="#fff" d="M44.398 24.893a.354.354 0 0 0 .166-.147c-.09.029-.151-.014-.17-.022.058-.043.127 0 .058-.111-.072-.112-.118-.112-.19-.036-.076.08-.55-.014-.547-.378a.33.33 0 0 0 .162.133.173.173 0 0 0 .057.03c.022.006.044.006.065.01a.23.23 0 0 0 .137.022c.007 0 .021.007.025.007v-.022c.097-.018.173-.075.183-.18.018-.197-.169-.287-.374-.464-.082-.064-.14-.125-.194-.176-.068-.14-.025-.266-.201-.528a1.514 1.514 0 0 0-.058-.23.654.654 0 0 0 .108.758c.202.216.63.435.608.619-.004.04-.043.082-.104.097-.022 0-.044 0-.065-.007-.01 0-.022-.008-.04-.015a.576.576 0 0 1-.09-.04c-.043-.028-.09-.057-.147-.114-.176-.17-.338-.407-.439-.547-.201-.252-.108-.493-.079-.701.14-.198-.086-.59-.216-.683 0 0 .03-.09-.007-.21a.205.205 0 0 1-.122.012c-.04-.069-.054-.083-.1-.09-.09-.015-.087-.061-.098-.097-.047.04-.061.09-.115.09-.072.007-.097 0-.126.028-.054.036-.075.058-.147.05-.087 0-.083.048-.076.105.004.036.007.09.061.112.008.007.015.014.026.014l.06.072.044-.08c.036-.028.136-.042.158.037.014.05.025.06-.043.068-.068.014-.104.014-.173.022-.043 0-.043.057-.04.093.004.047.051.068.148.047.097-.025.266-.04.266.043 0 .212-.244.205-.298.457a.44.44 0 0 1-.151-.14.987.987 0 0 0-.184-.227c-.05-.047-.111-.104-.183-.148-.08-.046-.083-.09-.083-.18 0-.071.033-.14.033-.212a.467.467 0 0 0-.022-.068c-.018-.043-.083-.079-.115-.072a.135.135 0 0 1 .043.076c-.018.014-.032.036-.032.043-.015.014-.025.043 0 .072.003 0 .003.007.003.014 0 .015 0 .022-.003.033 0 .014-.004.014-.007 0-.018-.047-.044-.126-.098-.133h-.032s.004-.008.004-.015c0-.054-.058-.097-.13-.025.015 0 .047.007.054.018a.25.25 0 0 0-.01.057c-.008.05.035.08.093.08.01 0 .018.007.018.01.003.008.003.015.007.022.004.014-.004.014-.007.007-.097-.04-.14.007-.144.05 0 0 0 .03.004.036-.036.022-.044.076.021.12 0-.022 0-.051.022-.066.007 0 .01 0 .014-.007.01.015.025.029.029.029.004.007.021 0 .05-.022.007-.007.015-.007.025 0l.033.022c.007.007.003.007 0 .014-.065.065-.054.119.021.14-.036.065-.147.044-.143-.06-.083.133.053.222.169.172.003.05.003.148.018.148-.004-.008.007-.026.025-.026.007 0 .01.008.01.015 0 .032.015.068.062.075-.008-.021.003-.029.014-.036.018.03.036.065.054.094.057.097.165.349.42.464-.129.068-.215.18-.298.28-.068.069-.172.148-.24.104-.03-.014-.037-.043-.073-.079a.285.285 0 0 0-.086-.018c-.004.008-.025.008-.04.018-.043-.018-.115.008-.136.044.029-.008.061-.015.097.014 0 .014 0 .043-.004.043-.003.036.022.061.155.054.007 0 .022.007.014.022-.014.007-.036.028-.072.014-.06-.014-.082-.061-.125-.007a.127.127 0 0 1-.033.036h-.014c-.047.014-.097.118-.04.162 0-.022.007-.058.04-.083l.032.032c.036.058.076.087.166-.047.01-.014.014 0 .01.008-.003.06-.068.147.015.158.003 0 .021 0 .036.007v.014c.014.072.118.094.15.072-.02-.014-.064-.028-.082-.093h.043c.043-.047-.01-.104.015-.148.003-.003.01-.003.018 0 .014.036.05.094.125.058a.116.116 0 0 0 .047-.083c.094-.036.173-.072.238-.05-.011-.043.043-.112.136-.133.094-.029.137 0 .17.029a.438.438 0 0 1 .09-.162c-.008.377.499.37.614.59-.155-.058-.32-.101-.413-.08-.123.022-.342.134-.37.277-.019.119.1.328.222.407-.144.029-.201-.015-.33.014h-.019c-.111.007-.126-.19-.266-.14-.007.007-.032.018-.04.025-.05 0-.122.065-.11.122.013-.014.042-.043.082-.05v.029c-.004.021.003.043.054.043.029 0 .036-.014.054-.014.007 0 .014.007.014.017 0 .05-.169-.032-.14.116 0 .007.014.028.025.04-.007.042.029.085.108.064-.015-.007-.043-.029-.036-.058.014 0 .032.008.032.008.011 0 .018-.008.018-.022 0-.004.004-.004.007-.004.008 0 .015.004.015.004 0 .007-.01.022-.01.036 0 0 .006.043.013.05-.007.05.072.105.144.05-.021 0-.064-.014-.072-.035.015-.008.036-.015.036-.015a.076.076 0 0 0 .015-.05c0-.022.003-.022.014-.022h.036c.014-.007.018 0 .025.015.018.028.058.057.105.043a.074.074 0 0 0 .046-.036.21.21 0 0 1 .061.036c-.014-.058.022-.097.144-.022l.08-.06s.11.046.154-.008c.076-.065.036-.065.036-.13-.054-.111-.08-.097-.1-.208-.037-.183.219-.288.373-.259.029.119.198.428.475.525.173.058.24-.133.302-.104.01.007.022.021.029.046-.011.087.003.162-.018.205-.018.044-.112.008-.176.008-.04-.008-.069.021-.069.028-.05.008-.115.058-.115.12.025-.015.058-.051.097-.058a.101.101 0 0 1 .004.028c.01.072.093.101.144.05.003-.014.021 0 .01.008-.039.029-.122.104-.05.133 0 0 .022.007.036.014-.003.05.025.09.065.097-.014-.028-.018-.04.007-.09.018.008.036.008.04.008.043 0 .025-.094.075-.119.004-.007.01-.007.007 0-.018.054-.025.119.022.133.007 0 .025.007.043.007.014.04.061.076.133.033-.014-.008-.057-.018-.065-.04a.278.278 0 0 0 .036-.043c.036-.112-.064-.119-.064-.162 0-.057.115-.021.115-.133 0 0-.004-.007-.004-.014.05-.03.104-.065.108-.105a.335.335 0 0 1-.137-.028v-.008zm-5.075 3.393-.104-.008.004-.09c.018-.366-.202-.632-.59-.632-.345 0-1.014.442-1.953.442-.395 0-.87-.19-1.168-.367l-.116.28v-.025c0-.125-.1-.233-.23-.233a.232.232 0 0 0 0 .464c.076 0 .14-.036.184-.083l-.119.28c.04.015.08.036.122.047-.136 1.413.914 3.226 2.766 3.773.273-.069.554-.026.554.273 0 .183-.094.262-.26.262-.11 0-.18-.064-.18-.133 0-.13.217-.05.238-.14.029-.115-.043-.162-.169-.162-.13 0-.327.083-.327.302 0 .252.205.4.424.4.205 0 .637-.112.58-.619.096 0 .208-.014.233-.104l.022-.288-.101-.014.079-3.251.072.003c.119.007.223-.046.23-.172.01-.13-.093-.19-.19-.205m-3.352.251 2.255 3.248c-1.209-.471-2.406-1.554-2.255-3.248m2.32 2.938-2.05-2.96c.064.008.129.008.187.008.104 0 .212-.007.316-.018l1.643 2.36c-.036.23-.068.441-.097.61m.151-.942-1.445-2.071c.158-.043.313-.086.46-.14l1.09 1.55c-.033.219-.069.442-.105.661m.353-2.283-.086-.007c-.098-.008-.22.035-.23.169-.008.125.082.205.2.212h.062l-.01.082c-.03.184-.076.493-.13.846l-.921-1.317c.432-.176.777-.356.967-.356.148 0 .177.069.148.37m.135-6.502c.44 0 .658-.14.658-.28 0-.486-1.208-.184-1.208-.479 0-.05.036-.09.09-.133h.014c.608-.058.619-.478 1.05-.561-.52-.072-.593.334-.82.356.123-.054.166-.194.155-.252-.108.14-.341.155-.47.317-.022.028-.03.06-.022.09-.08.05-.126.107-.126.176 0 .457 1.222.14 1.222.478 0 .119-.212.198-.546.198-.252 0-.435-.176-.906-.058.003-.079.158-.23.097-.302.046-.014.079-.057.079-.09-.025-.028-.058-.036-.09-.043.014-.021 0-.05-.022-.065-.003-.007-.014-.053-.025-.06a.355.355 0 0 0-.111-.08c-.05-.029-.087-.029-.108-.029-.015-.007-.061.008-.069.008-.025 0-.057 0-.06.028a.126.126 0 0 0-.087-.036.189.189 0 0 0-.01.137c-.044 0-.09.112-.134.097.018.036.029.05.043.05-.036.062-.054.14-.093.148.01.01.021.025.032.032-.04.101-.057.22-.065.28a.534.534 0 0 0-.097-.075c-.072-.043-.068-.079-.057-.147.01-.065.05-.112.057-.17a.512.512 0 0 0-.01-.057c-.008-.04-.062-.068-.094-.06.014.014.032.028.029.06-.015.008-.029.03-.033.03-.018.02-.028.042-.01.057l.003.021c0 .007-.003.015-.007.029-.007.007-.007 0-.01 0-.008-.05-.022-.108-.062-.115h-.032v-.014c.007-.04-.04-.076-.112-.018.015 0 .04 0 .047.01-.01.015-.018.043-.022.05-.01.044.026.065.08.065.01 0 .014.008.014.008.004.007.004.014.004.021.003.004-.004.004-.008.004-.086-.033-.125 0-.136.036 0 0-.004.021-.004.029-.032.021-.047.064.007.097 0-.015.004-.04.03-.047 0-.007.006-.007.01-.007l.018.021c.007.007.025.007.057-.014.004-.007.011-.007.022 0 .004.007.01.007.022.014.003.007.003.007 0 .015-.069.046-.069.097.01.118.008 0 .008.007.008.015-.022.097-.162.075-.14-.022-.098.112.028.194.143.148.01-.008.01-.008.015 0 .003.021.01.036.028.036 0 0 .011-.022.029-.022.01 0 .01.007.01.014-.003.018 0 .054.037.061-.004-.021.007-.043.021-.043s.047.087.112.155c-.097.043-.263.079-.273.079-.022 0-.166-.014-.213.014-.072.036-.24.098-.29.03-.015-.022-.012-.051-.033-.087-.018-.029-.04-.04-.054-.04h-.043c-.026-.036-.09-.043-.112-.014.018 0 .043.007.065.04-.01.007-.018.028-.018.035-.014.022-.007.058.1.09.004.008.015.015.004.022a.057.057 0 0 1-.057-.007c-.044-.033-.047-.083-.101-.054-.004.007-.018.014-.032.021-.004 0-.008-.007-.011-.007-.047 0-.122.054-.09.104.007-.007.025-.035.057-.043.008.015.011.03.011.03.011.064.036.103.148.028.018-.015.018.007.01.007-.025.047-.1.09-.046.133.007 0 .018.007.028.022-.003 0-.003.007-.003.007-.015.061.054.104.093.104a.093.093 0 0 1-.036-.09c.011 0 .03.007.033.007.054-.021.029-.093.057-.115.008 0 .015 0 .015.008.003.028.021.093.082.086a.099.099 0 0 0 .09-.094c-.003-.007 0-.007 0-.007.022.015.04.043.033.072a.105.105 0 0 0 .046-.043.1.1 0 0 1-.025.111c.025-.01.09-.04.105-.111.01.007.018.022.021.036 0-.007.004-.007.004-.007a.216.216 0 0 0 .133-.007c.007 0 .007.007.007.007-.007.036-.007.057.007.072 0-.008.018-.03.025-.03.018 0 0 .062.04.098.01-.162.1-.097.201-.169.015-.007.015 0 .011.007-.007.022-.014.043-.043.058.04 0 .126-.043.126-.101 0-.007.032-.025.065-.047.035.007.097-.014.118-.057.004.014.025.064-.003.079.107.007.219-.115.259-.13.23-.046-.14-.215.327-.18.04 0 .108-.028.14-.057-.036.08-.04.22.032.227.033.007.097.025.123.054.003.007.003.007-.004.007a.446.446 0 0 0-.1.028c-.112.076-.116-.169-.234-.118a.118.118 0 0 0-.03.021c-.046 0-.11.054-.1.105.015-.015.04-.043.076-.043v.021c-.004.022.003.043.043.043.025 0 .029-.014.047-.014.007 0 .01.007.01.014 0 .047-.143-.029-.111.097 0 0 .007.03.018.036-.007.036.025.076.09.058-.011-.015-.036-.029-.033-.043h.033c.003 0 .01-.007.014-.022 0-.007 0-.007.004-.007.01 0 .018.007.018.014 0 .008-.015.015-.015.03 0 0 .015.028.015.031-.007.044.057.087.122.044-.018 0-.058-.008-.061-.03.01 0 .025-.014.029-.014.01-.003.014-.018.014-.04 0-.006.007-.006.01-.006.012-.007.022-.007.033-.007.01 0 .018.007.022.007.01.028.046.054.09.043.079-.029.01-.1.075-.115.01-.007.033-.007.047 0 .061.014.15.014.169-.015.014-.025.007-.14-.058-.18-.04-.021.004-.071-.036-.129.069.029.14.058.234.058.17 0 .007-.022.083-.065.079-.054.176-.025.201-.018.022 0 .04.014.036.032-.018.094.007.101-.01.14-.019.037-.09.008-.14 0-.03 0-.051.022-.051.03-.043.007-.094.042-.09.093.014-.007.04-.029.075-.043v.021c.008.061.076.083.112.04.004-.004.022 0 .014.007-.036.029-.097.086-.046.108.003 0 .018.007.032.014-.007.04.022.069.054.076-.01-.015-.014-.029.003-.069h.03c.035.008.02-.071.064-.093.004-.007.007-.007.004 0-.008.043-.022.1.018.108.003 0 .018.003.032.003.01.036.05.058.1.03a.097.097 0 0 1-.046-.03c.014-.01.029-.032.029-.04.025-.093-.05-.093-.05-.125 0-.05.09-.022.09-.115 0-.014-.012-.04-.04-.054h-.004.004c.021 0 .05.007.06-.036-.064.007-.046-.05-.053-.083 0-.007 0-.007.003-.014.022-.014.04-.05.03-.1-.022.028-.098.071-.101 0-.004 0-.008-.04-.076-.037-.111.015-.165-.04-.378-.06-.01-.008-.021-.015 0-.015m-1.345-.493h-.007.007m.32-.075c.015.014.101.046.144.054-.064.014-.05.043-.093.035-.04 0-.061-.046-.05-.09m-.09-.05c-.015.036-.062.065-.094.029-.032-.029.007-.036-.032-.097a.443.443 0 0 0 .126.068m-.137.295c.01-.021.022-.043.036-.043.025 0 .04 0 .047-.025.01-.029-.015-.043-.04-.065.029-.007.04-.014.025-.029-.018-.014-.043.015-.05 0-.004-.014.018-.021.025-.036a.061.061 0 0 1 .036 0l.115.058c.018.007.025.014.025.029 0 .021.007.036-.007.043-.01.007-.01-.036-.032-.043-.018 0-.018.021-.007.05-.03-.014-.05-.022-.065 0-.015.018-.011.04.007.054.01.014 0 .036-.007.065-.011.028-.043.06-.086.04-.044-.019-.036-.07-.022-.098m1.859 1.967c0-.133-.148-.226-.576-.226s-1.402.161-1.402-.076c0-.119.19-.111.417-.097.014.022.043.04.097.054.55.162 1.208-.133 1.54-.04-.396-.294-.724.011-1.148-.079.248 0 .331-.068.345-.14-.194.126-.553-.065-.784.08a.098.098 0 0 0-.036.032c-.305-.015-.55-.015-.55.19 0 .428 1.151.176 1.514.176s.439.036.439.112c0 .097-.36.126-.557.126-.32 0-1.263-.17-1.838-.047.05-.094.15-.22.097-.291.05-.018.09-.061.093-.105a.213.213 0 0 0-.111-.046c.018-.03-.004-.05-.022-.08-.007-.007-.018-.064-.028-.068-.026-.021-.065-.057-.126-.086-.069-.029-.108-.029-.137-.043-.01 0-.072.014-.075.014-.03 0-.069 0-.072.036-.025-.029-.065-.036-.101-.05a.241.241 0 0 0-.014.162c-.047 0-.105.133-.155.115.018.04.036.054.05.054-.043.079-.06.169-.108.176.03.036.05.057.069.057a9.744 9.744 0 0 1-.011.166l-.09-.033h-.025c-.014 0-.025-.007-.036-.014.01 0 .025.007.036.007l-.05-.014c-.047-.043-.108-.119-.184-.162-.09-.05-.09-.09-.083-.176.004-.083.04-.148.04-.216 0-.007-.01-.05-.018-.065-.007-.05-.072-.082-.108-.079.022.015.04.036.04.08-.015.014-.03.035-.033.035-.021.022-.028.047 0 .076.004.007.004.014.004.021l-.007.03c-.004.013-.007.006-.015 0-.014-.051-.036-.134-.082-.134-.004 0-.026-.007-.033 0 .004-.007.004-.007.004-.014.003-.05-.061-.097-.13-.03.015 0 .044.008.05.022a.222.222 0 0 0-.014.058c-.007.054.033.076.097.076.004 0 .011.007.015.014l.003.021c.004.015-.003.008-.01.008-.094-.043-.137 0-.14.04 0 .006-.004.035 0 .042-.037.03-.047.08.01.119 0-.018 0-.054.025-.061.008 0 .011 0 .015-.007.007.007.021.021.025.021.01.007.029.007.061-.014.004-.007.01-.007.022 0 .007 0 .018.007.025.014.007.007.007.015 0 .022-.065.061-.058.126.025.14.01 0 .014.007.014.022-.014.118-.172.097-.158-.022-.093.133.061.245.176.173.011-.004.015-.004.018 0 .004.029.015.043.033.05 0-.007.007-.029.028-.036.008 0 .008.015.008.022 0 .028.01.072.054.072-.008-.022.003-.044.021-.044.022 0 .072.09.173.148.075.036.136.126.187.072-.011.083.065.172.047.172-.026 0-.245-.01-.303.015-.079.043-.28.115-.338.036-.018-.029-.01-.058-.036-.104a.126.126 0 0 0-.068-.05h-.047c-.028-.037-.104-.044-.133-.015.022.007.05.007.08.05-.011.015-.019.036-.026.043-.018.018-.007.069.119.112.007 0 .018.014.007.014-.018.015-.047.015-.068-.007-.05-.036-.058-.094-.119-.058 0 0-.021.015-.04.022 0-.007-.003-.007-.007-.007-.057-.007-.143.065-.107.126a.1.1 0 0 1 .068-.054l.018.04c.01.064.036.114.172.028.008-.014.008 0 .008.007-.033.058-.123.105-.054.148.003.007.018.014.036.028-.004 0-.008.008-.008.008-.018.075.065.133.105.133-.018-.022-.047-.065-.04-.112.015 0 .036.007.036.007.068-.028.04-.107.072-.125.01-.008.018 0 .018.007.004.032.018.104.097.097.068-.007.1-.065.097-.104-.003-.008 0-.015.004-.008.025.015.05.04.036.076a.09.09 0 0 0 .057-.058c.015.043.018.087-.025.137.022-.014.097-.05.115-.13.015.008.025.03.033.044 0 0 0-.008.007-.008a.312.312 0 0 0 .147 0c.007-.007.011 0 .011.008-.007.028-.007.057.004.072 0-.008.021-.036.032-.036.018 0-.004.068.043.118.015-.197.119-.118.237-.197.015-.008.015 0 .011.007a.087.087 0 0 1-.046.064c.133.03.338-.169.366-.251.054-.007.105-.015.126-.015.378.036.119-.338.727-.226a.36.36 0 0 0 .147-.069c-.047.076-.05.245.032.26.04 0 .12.028.144.057.007.007 0 .007-.007.014a.51.51 0 0 0-.115.025c-.126.087-.133-.194-.27-.133-.007 0-.028.015-.036.022-.05 0-.13.065-.115.126a.139.139 0 0 1 .087-.054v.025c-.004.029.007.05.05.05.025 0 .032-.014.057-.014.011 0 .018 0 .018.014 0 .05-.172-.028-.14.112 0 .007.011.036.022.043-.007.043.029.083.108.065-.015-.007-.044-.029-.04-.05h.036c.01 0 .018 0 .022-.022 0-.007 0-.007.003-.007.007 0 .011.007.011.014s-.007.014-.007.029c0 .007.007.043.014.043-.007.054.069.111.144.054-.018 0-.068-.007-.075-.036a.164.164 0 0 1 .04-.01.1.1 0 0 0 .017-.058c0-.008.004-.008.007-.008.011 0 .025 0 .036-.007.018 0 .022.007.025.015.018.028.062.057.108.043.094-.029.015-.115.087-.133h.054c.071.018.18.018.197-.015.022-.036.011-.161-.064-.212-.047-.021.003-.075-.044-.14.083.029.166.065.27.065.205 0 .248-.03.342-.087.093-.06.205-.021.234-.021.025.007.046.014.04.05-.026.104.006.112-.015.162-.018.036-.101.007-.162 0-.032 0-.058.022-.061.029-.047.007-.105.054-.101.111a.174.174 0 0 1 .09-.05c0 .007.004.021.004.021.007.072.079.09.129.05.004-.006.022 0 .014.008-.046.029-.115.097-.057.119.003.007.021.014.04.021-.004.04.028.09.06.097-.014-.028-.017-.043.004-.09h.033c.05.008.025-.079.079-.115.003-.003.007 0 .003.008-.014.05-.021.115.018.129.004 0 .022 0 .036.007.015.04.065.069.122.033-.014-.008-.043-.022-.05-.04.01-.014.025-.043.029-.05.032-.105-.061-.105-.061-.148 0-.05.104-.014.104-.126a.07.07 0 0 0-.047-.064v-.008c.029 0 .061.008.076-.036-.076.008-.058-.053-.065-.097-.004-.007-.004-.014.004-.021.025-.015.043-.047.036-.112-.026.036-.112.076-.123.007-.003-.007-.007-.057-.079-.043-.133.015-.226-.014-.47-.036.28 0 .697-.075.697-.23m-3.366.245c-.004-.007-.004-.007.003-.007-.003 0-.003 0-.003.007m.683-.619a.607.607 0 0 0 .173.072c-.083.015-.061.043-.112.043-.043 0-.068-.064-.061-.115m-.1-.047c-.022.036-.069.069-.109.03-.032-.037.004-.044-.035-.123a.597.597 0 0 0 .143.093m-.158.346c.015-.03.022-.05.04-.05.028 0 .046-.008.054-.037.014-.036-.018-.05-.047-.068.032-.007.047-.022.032-.043-.021-.014-.05.014-.057 0-.004-.014.018-.022.025-.036.014-.007.025-.007.043 0l.137.065c.018.014.028.014.028.032-.003.022.004.043-.01.05-.015.008-.011-.043-.036-.05-.022 0-.022.022-.007.058-.033-.015-.062-.03-.08 0-.018.028-.01.043.015.064.01.015 0 .04-.015.076-.01.029-.05.072-.097.043-.05-.022-.04-.08-.025-.104m.349.751.004-.007c0 .007 0 .007-.004.007m2.403 1.206c0-.125-.136-.205-.546-.205-.414 0-1.673.148-1.673-.075 0-.147.428-.094.741-.086.011.028.043.05.087.064.532.148 1.082-.205 1.46-.075-.299-.277-.684.025-1.083-.058.234 0 .478-.043.49-.111-.18.119-.695-.08-.907.054a.207.207 0 0 1-.036.029c-.392 0-.867-.058-.867.183 0 .406 1.439.169 1.78.169s.418.036.418.097c0 .097-.342.126-.54.126-.313 0-1.658-.183-2.19-.022.032-.082.158-.223.097-.295.054-.025.087-.06.09-.104a.24.24 0 0 0-.1-.05c.014-.018-.004-.047-.022-.068-.01 0-.022-.058-.029-.072-.021-.015-.065-.047-.122-.076-.061-.029-.104-.029-.122-.036-.015-.007-.069.014-.076.007-.025 0-.065 0-.072.036-.018-.029-.054-.036-.09-.043a.18.18 0 0 0-.014.148c-.047 0-.1.125-.144.104.014.043.029.057.043.057-.04.072-.054.162-.1.17a.158.158 0 0 0 .039.043.795.795 0 0 0-.014.125l-.04-.014c-.029 0-.057 0-.065-.007-.018 0-.043-.007-.068-.007-.065-.008-.115-.112-.22-.177-.082-.05-.086-.082-.086-.169 0-.075.033-.14.025-.201 0-.007-.01-.043-.014-.065-.014-.05-.075-.082-.108-.072.018.015.036.03.043.072-.014.015-.032.036-.032.043-.018.015-.025.04.004.069.003.007.003.007.003.014s0 .015-.003.036c-.004.007-.011.007-.011 0-.022-.057-.047-.126-.086-.133h-.033v-.007c0-.058-.061-.097-.119-.036.011.007.036.007.044.021a.512.512 0 0 0-.011.058c-.004.054.036.068.093.076.011 0 .015 0 .018.007a.051.051 0 0 1 .008.021c.003.015 0 .015-.008.008-.097-.044-.133.007-.133.043 0 .007-.003.025 0 .032-.036.029-.043.08.018.115 0-.014-.003-.05.018-.057.004 0 .007 0 .011-.008.01.015.029.022.029.03.007 0 .025 0 .054-.022.01-.008.014-.008.025 0 .007.007.018.007.025.014a.023.023 0 0 1 0 .022c-.061.053-.05.118.029.133.014 0 .014.007.014.021-.007.112-.154.09-.154-.029-.08.133.072.23.183.17.004-.008.007 0 .01.007.008.014.019.032.04.032 0-.004.004-.018.026-.018.003 0 .003.007.003.014 0 .026.014.069.061.076-.01-.029-.003-.05.015-.05s.097.154.27.248c.028-.008.075-.008.093-.043 0 .007.014.021.032.035.007.076.058.17.043.17-.025 0-.287-.008-.345.014-.072.047-.259.111-.32.032-.014-.029-.007-.046-.032-.09-.018-.028-.043-.05-.061-.05h-.05c-.026-.036-.094-.04-.127-.022.026.008.05.015.076.058a.19.19 0 0 0-.022.036c-.014.022-.007.061.112.104.007 0 .018.015.007.015-.014.014-.043.014-.065 0-.047-.036-.054-.09-.111-.065-.004 0-.022.014-.036.021h-.015c-.05-.014-.133.058-.097.12a.092.092 0 0 1 .069-.055c.003.015.01.029.01.036.011.061.036.112.162.025.015-.007.015 0 .011.008-.029.057-.119.107-.05.147.003 0 .018.007.028.022 0 .007-.003.007-.003.014-.01.065.057.119.104.111-.021-.014-.05-.046-.043-.104.022.007.036.014.04.014.057-.021.032-.097.064-.118.011-.007.018 0 .018.007.004.029.015.097.09.09.069-.007.097-.061.09-.104 0 0 0-.008.007 0 .025.014.047.036.04.068.01 0 .036-.018.05-.047.011.033.018.083-.029.126.026-.007.101-.043.115-.119.011.008.022.022.026.033 0 0 .003 0 .003-.007.029.014.072.014.148 0 .003-.004.007 0 .003.007 0 .029 0 .057.011.072 0-.008.022-.036.029-.036.021 0 0 .072.036.111.018-.18.234-.09.349-.158.014-.014.014-.007.01 0a.107.107 0 0 1-.054.061c.044.007.105-.021.152-.057-.004 0-.011.007-.015.014l.187-.083c0-.014.007-.036.01-.057.023-.007.044-.007.062-.015 0 .008-.004.008-.007.008.119.007.108-.09.155-.076.665.083.284-.288 1.071-.22.036 0 .05-.014.09-.039-.047.076-.047.201.036.216a.327.327 0 0 1 .137.057c.007.008 0 .015-.008.015-.043.007-.093.014-.107.029-.126.075-.13-.184-.263-.137-.004 0-.021.021-.029.029-.054 0-.126.057-.115.111a.151.151 0 0 1 .087-.047v.03c-.004.017.003.039.043.039.028 0 .032-.015.057-.015.007 0 .011.008.011.015 0 .05-.158-.025-.13.115 0 0 .015.025.026.032-.007.043.025.086.1.065-.014-.007-.043-.029-.04-.05a.092.092 0 0 0 .04.007s.011-.007.015-.03c.003 0 .003-.006.007-.006.007.007.01.007.01.014 0 .015-.006.022-.006.029 0 .007.007.043.014.05-.007.043.061.097.137.047-.018-.004-.069-.01-.076-.032a.183.183 0 0 1 .04-.015c.01-.007.014-.029.014-.05.004-.014.007-.014.014-.014h.033c.014-.008.021 0 .025.007.007.036.05.057.1.043.083-.029.015-.104.08-.119.01-.007.04-.007.054 0 .068.015.172.007.19-.021.018-.036.008-.155-.064-.198-.05-.029 0-.076-.044-.14.08.028.155.064.26.064.183 0 .237-.028.32-.079.09-.054.194-.029.226-.029.022.008.043.022.036.05-.022.098.01.105-.01.155-.019.036-.102.008-.155 0-.033 0-.062.022-.062.03-.046.006-.097.05-.097.103.018-.007.05-.043.083-.043 0 .008 0 .015.004.015.007.072.082.093.122.05.007-.007.021 0 .014.007-.036.029-.108.09-.046.119l.032.014c-.004.043.021.083.061.09-.014-.018-.018-.032.004-.075h.032c.04 0 .022-.083.065-.112.007 0 .01 0 .01.007-.014.04-.021.105.018.12 0 0 .022.006.036.006.011.036.058.061.112.029-.014 0-.04-.014-.05-.036a.092.092 0 0 0 .025-.043c.032-.104-.05-.104-.05-.14 0-.058.1-.022.1-.126 0-.015-.014-.043-.05-.065v-.007.007c.029-.007.06 0 .075-.032-.075.007-.054-.058-.064-.094 0-.014-.004-.021.003-.021a.109.109 0 0 0 .036-.105c-.025.036-.104.072-.111 0-.004 0-.008-.057-.087-.043-.122.022-.205-.014-.442-.032.237-.015.665-.065.665-.22m-2.995-.33a.83.83 0 0 0 .161.064c-.079.015-.06.036-.107.036s-.062-.064-.054-.1m-.101-.054c-.022.032-.065.068-.104.032-.03-.032.003-.04-.036-.111.04.028.118.079.14.079m-.151.327c.014-.025.025-.047.036-.047.036 0 .05-.007.057-.029.015-.036-.018-.05-.05-.072.036-.007.05-.021.036-.032-.022-.014-.054.007-.057 0-.004-.014.014-.029.021-.036.014-.014.029-.007.047 0l.13.054c.014.014.024.022.024.043 0 .007.008.036-.007.043-.014 0-.01-.043-.043-.043-.014-.007-.014.015-.003.043-.03-.007-.058-.021-.072.008-.015.021-.011.043.01.06.008.008 0 .037-.01.065-.011.03-.047.072-.094.05-.047-.028-.04-.078-.025-.107m9.077 3.218c0-.007 0-.014.007-.014a.13.13 0 0 0 .043-.111c-.028.036-.115.075-.115.007 0-.007-.003-.058-.079-.043-.122.014-.237-.015-.478-.03-.015-.006-.025-.014 0-.02.24-.019.669-.055.669-.202 0-.126-.137-.205-.55-.205-.41 0-1.67.147-1.67-.083 0-.147.425-.086.742-.079.01.029.04.043.086.058.529.154 1.13-.248 1.45-.148-.414-.147-.677.104-1.076.022.234 0 .482-.05.493-.115-.184.122-.694-.076-.91.057a.091.091 0 0 0-.036.029c-.388-.007-.863-.05-.863.176 0 .407 1.435.17 1.776.17.346 0 .425.039.425.104 0 .097-.346.118-.54.118-.323 0-1.661-.176-2.197-.014.032-.09.162-.223.1-.295.051-.022.09-.061.09-.104a.217.217 0 0 0-.104-.05c.018-.022-.003-.051-.021-.069-.007-.007-.015-.065-.029-.072a.37.37 0 0 0-.122-.083c-.058-.028-.097-.028-.123-.028-.014-.008-.068.007-.071.007-.03 0-.065 0-.069.029a.153.153 0 0 0-.097-.036c-.021.043-.029.075-.01.147-.051 0-.098.119-.148.104.018.036.032.05.05.058-.043.068-.06.162-.108.162.03.032.05.054.069.06-.004.044-.011.087-.011.12l-.072-.026h-.065c-.018-.007-.04-.007-.065-.014-.06-.007-.115-.112-.222-.176-.083-.043-.083-.087-.083-.17 0-.068.032-.132.029-.197a.414.414 0 0 0-.022-.061c-.014-.05-.076-.087-.108-.072a.1.1 0 0 1 .043.072c-.014.014-.032.036-.036.036-.01.018-.018.046.004.068a.022.022 0 0 1 .007.014c0 .008 0 .022-.007.036-.004.015-.007.008-.007 0-.015-.05-.043-.125-.087-.125-.003 0-.021-.008-.036-.008 0 0 .004 0 .004-.007 0-.05-.058-.093-.119-.029.015 0 .04.008.05.022-.006.014-.014.047-.014.047-.003.057.033.079.094.079.014 0 .018.007.018.014 0 0 0 .015.003.022.004.007-.003.007-.003.007-.094-.043-.137 0-.137.04 0 0-.003.028 0 .035-.029.022-.04.072.022.112-.004-.022-.004-.054.021-.061h.011a.115.115 0 0 0 .025.021c.007.008.022 0 .058-.021h.018c.007.007.014.014.029.021.003.008.003.008 0 .015-.062.06-.05.126.028.14.011 0 .015.007.015.014-.007.12-.159.09-.155-.021-.083.133.065.23.18.169.007-.007.01-.007.014 0 .007.018.018.04.036.04-.003 0 .007-.03.025-.03.008 0 .008.015.008.022.003.029.014.065.057.072-.007-.029 0-.043.015-.043.025 0 .093.169.262.259-.004-.014.068-.04.1-.061a.11.11 0 0 0 .058.075l.025-.021c-.01.086.083.162.069.162-.025 0-.184-.022-.238.007-.075.043-.262.115-.32.036-.018-.03-.014-.058-.04-.097a.096.096 0 0 0-.057-.05h-.046c-.033-.03-.098-.037-.126-.015a.098.098 0 0 1 .068.05.156.156 0 0 1-.018.036c-.01.025-.007.069.111.112.008 0 .022.007.011.014-.018.007-.043.014-.068-.007-.047-.036-.054-.086-.112-.058-.003 0-.018.008-.036.015h-.01c-.054-.007-.133.064-.097.126.003-.022.028-.054.064-.062.004.015.008.033.011.04.01.065.036.108.162.029.014-.007.014 0 .007.007-.025.05-.111.097-.047.14 0 .007.018.015.03.022-.004.007-.004.014-.004.014-.011.069.06.126.107.119a.12.12 0 0 1-.046-.104c.018.007.032.014.04.007.057-.022.032-.1.068-.119.007-.007.01 0 .014.007.004.033.018.097.09.09.068 0 .1-.065.09-.097 0-.007.003-.007.01-.007.022.014.044.04.037.075a.185.185 0 0 0 .05-.054.13.13 0 0 1-.029.134c.029-.015.097-.05.115-.13.015.014.025.029.025.043 0 0 .004-.007.008-.007a.29.29 0 0 0 .14 0c.01-.007.01 0 .01.007-.007.022-.007.058.008.072 0-.007.018-.036.029-.036.021 0 0 .065.04.112.017-.184.114-.112.23-.184.014-.01.014-.007.01.007a.096.096 0 0 1-.05.058c.04.036.208-.072.208-.14 0-.015.061-.022.119-.029.115.007.1-.09.147-.083.673.09.288-.287 1.076-.212.036 0 .054-.043.086-.075-.04.075-.043.23.04.251.032 0 .107.03.136.05a.008.008 0 0 1-.003.015c-.05.004-.101.018-.116.032-.122.08-.125-.187-.255-.14-.007.007-.029.022-.036.029-.054 0-.122.065-.111.119.018-.022.043-.047.082-.047v.025c0 .022.008.043.05.043.026 0 .033-.014.048-.014.01 0 .018.007.018.014 0 .05-.162-.029-.13.104.004.008.014.036.022.044-.008.043.028.086.1.057-.014-.007-.04-.029-.032-.05.01.007.025.007.029.007.007 0 .014-.007.018-.022 0-.007.003-.007.01-.007.011 0 .015.007.015.015 0 .007-.01.014-.007.028 0 0 .003.036.007.044-.004.046.065.104.14.046-.025 0-.068-.007-.075-.032a.176.176 0 0 1 .036-.014c.01-.008.014-.03.014-.05 0-.015.007-.015.01-.015h.037c.018 0 .018.007.025.014.014.029.05.058.104.036.083-.029.011-.108.08-.119.014 0 .035-.007.053 0 .069.011.17.011.187-.021.018-.029.007-.155-.065-.198-.043-.021 0-.079-.04-.133.08.029.156.054.256.054.19 0 .248-.018.338-.068.101-.065.198-.03.234-.03.018.008.036.015.025.051-.025.097 0 .105-.018.148-.025.036-.104.007-.162.007-.028-.007-.054.021-.057.021-.047.015-.104.054-.108.105.022-.007.05-.036.09-.043v.021c0 .065.072.086.119.043.003-.007.021 0 .01.015-.036.028-.115.09-.057.111l.029.022c-.004.036.021.082.054.09-.008-.03-.011-.043.01-.083h.033c.046 0 .032-.086.079-.112.007 0 .01 0 .007.004-.018.05-.032.108.01.122 0 0 .019.008.03.008.01.04.057.06.115.032-.015-.007-.044-.018-.044-.032.011-.022.03-.044.03-.05.039-.098-.044-.105-.04-.141.003-.05.097-.022.104-.119a.063.063 0 0 0-.036-.064c-.004 0-.004 0-.004-.008.03 0 .058.008.083-.028-.083.007-.054-.054-.061-.098m-2.952-.766c.021.015.111.05.161.065-.075.015-.06.047-.104.047-.05-.007-.068-.068-.057-.112m-.101-.05c-.018.036-.065.065-.1.036-.037-.043.003-.047-.04-.111.04.021.122.068.14.075m-.155.331c.018-.029.029-.054.047-.054.025.007.04 0 .05-.029.011-.028-.018-.043-.046-.064.028-.008.046-.022.028-.044-.018-.01-.046.022-.05 0-.007-.01.014-.018.022-.032.014-.007.025-.007.043 0l.13.061c.014.015.024.022.024.036 0 .015.008.043-.007.043-.014.007-.014-.036-.036-.043-.021 0-.021.015-.007.05-.032-.014-.061-.028-.072 0-.018.03-.014.04.01.069.004.007 0 .036-.01.065-.014.028-.05.06-.093.043-.047-.022-.044-.072-.033-.101m-.104-.19h-.007.007zm.032-.14h-.01.01m.612.956c.003 0 0 0 0 0m.827.892c.011.022.044.05.094.065.503.147 1.075-.241 1.38-.148-.398-.144-.646.097-1.028.018.227 0 .46-.04.472-.104-.173.111-.662-.068-.864.057l-.036.022c-.273-.007-.5-.007-.5.173 0 .388 1.043.161 1.37.161.328 0 .292.03.292.101 0 .083-.374.112-.561.112-.277 0-1.136-.148-1.654-.044.043-.082.133-.194.082-.251.047-.029.08-.065.083-.105a.26.26 0 0 0-.097-.043c.014-.028-.003-.05-.018-.072-.007 0-.018-.054-.032-.06a.296.296 0 0 0-.112-.08c-.06-.029-.097-.029-.122-.032l-.068.003c-.03 0-.061 0-.065.03-.025-.022-.05-.03-.09-.033a.182.182 0 0 0-.014.14c-.047 0-.09.119-.137.104.014.036.032.05.047.05-.043.069-.058.155-.1.162.013.018.024.026.039.04a.551.551 0 0 0-.026.147l-.046-.021h-.018c-.065-.007-.101 0-.205-.054-.08-.043-.08-.086-.08-.162 0-.072.033-.126.03-.198a.308.308 0 0 0-.019-.054c-.018-.043-.075-.079-.107-.064.018.007.04.028.043.064-.015.011-.03.026-.03.033-.013.021-.024.05 0 .072.008.007.008.007.008.014s-.003.014-.003.029c-.004.01-.011.003-.011 0-.018-.05-.04-.122-.083-.122-.004 0-.022-.008-.032 0v-.008c0-.054-.054-.09-.108-.032.007.007.032.007.043.018a.183.183 0 0 0-.014.05c-.004.058.035.08.093.08.01 0 .01 0 .014.007l.008.018c.003.007-.004.007-.011.007-.09-.033-.126 0-.13.036 0 .007 0 .036.004.043-.029.022-.036.068.018.097 0-.014-.004-.04.018-.047.004 0 .01-.007.014-.007.007.014.022.018.022.018.007.007.021.007.054-.01.007-.008.014-.008.021 0 .004.006.015.006.026.01.007.007.003.014 0 .014-.054.065-.047.123.028.13.011.004.011.01.011.018-.003.115-.15.093-.144-.018-.075.126.065.223.173.158.003-.007.007 0 .01 0 .008.022.019.043.04.043 0-.007.004-.021.018-.021.007 0 .007 0 .007.007.004.029.015.072.054.079-.007-.022 0-.05.015-.05.021 0 .018-.05.15.028.012.022.03.044.055.05l.093-.014c-.01.069.011.187-.003.187-.026 0-.173-.018-.227.008-.072.043-.252.108-.302.028-.018-.021-.01-.05-.032-.082a.17.17 0 0 0-.062-.05h-.046c-.025-.037-.094-.037-.123-.015.022 0 .05.007.069.05-.007.007-.015.03-.018.036-.015.018-.004.054.108.097.003.008.014.015.007.022a.063.063 0 0 1-.061-.007c-.047-.043-.054-.094-.105-.058a.295.295 0 0 0-.04.015c-.003 0-.003-.008-.01-.008-.05 0-.126.065-.09.12.004-.015.022-.04.061-.048.008.015.011.025.011.033.01.064.036.108.158.021.011-.007.011.007.008.007-.033.058-.108.108-.047.14 0 0 .01.015.029.022l-.011.015c-.007.064.06.111.1.111a.111.111 0 0 1-.035-.097c.014 0 .028.007.035.007.062-.029.03-.09.065-.111.007-.007.015 0 .015.007.003.022.014.083.082.083.069-.008.097-.061.09-.097-.003 0 0-.008.007 0 .022.007.04.036.033.068a.191.191 0 0 0 .047-.047c.018.025.021.068-.026.119.026-.007.097-.043.108-.119.015.015.022.025.029.033h.004a.227.227 0 0 0 .136-.008c.007 0 .007.008.007.008-.007.028-.007.057.008.079 0-.015.018-.044.028-.044.018 0 0 .072.044.105.01-.166.154-.126.258-.194.011-.008.011-.008.011.007a.103.103 0 0 1-.05.054c.115.072.24-.09.273-.177.015-.003.025-.017.033-.032.007.022.01.032-.022.047.115.007.104-.076.144-.068.342.021.086-.288.63-.198.035.007.103-.029.132-.054-.036.068-.04.216.036.23.04.007.105.036.13.058.007.007 0 .007-.004.014-.043 0-.09.01-.108.018-.111.079-.115-.166-.24-.126-.008.007-.022.014-.033.029-.05-.007-.119.057-.108.104a.16.16 0 0 1 .083-.04c-.004.015-.004.018-.004.026-.003.014.004.036.05.036.022 0 .026-.015.044-.015.007 0 .014.007.014.022 0 .043-.151-.029-.126.1a.21.21 0 0 0 .025.04c-.003.036.033.08.094.058-.011-.008-.036-.03-.033-.05h.033c.003.006.01 0 .014-.015 0-.007.004-.007.007-.007.008 0 .015.007.015.007 0 .014-.007.014-.007.029 0 0 .003.043.01.043-.007.047.062.097.13.047-.018 0-.061-.004-.068-.033.014-.007.032-.007.035-.014.008-.007.011-.022.011-.05 0-.008.011-.008.015-.008h.032c.014-.007.022 0 .025.007.015.036.047.058.094.044.086-.036.01-.105.082-.12.008 0 .03-.006.047 0 .068.015.162.015.18-.013.018-.03.01-.148-.065-.191-.036-.022.007-.072-.032-.133a.508.508 0 0 0 .24.061c.18 0 .263-.025.357-.075.1-.058.194-.03.22-.022.02 0 .035.014.02.05-.042.083-.017.097-.046.14-.025.037-.097.008-.151 0-.025 0-.058.022-.058.022-.05.015-.107.054-.115.104a.123.123 0 0 1 .087-.043.127.127 0 0 1-.004.022c-.01.065.058.086.104.043.008-.007.026 0 .011.007-.043.029-.126.083-.075.112.007 0 .021.007.032.014-.014.043 0 .083.029.083-.004-.018-.004-.033.029-.069h.028c.043 0 .047-.086.094-.104.007-.007.01 0 .007 0-.029.047-.047.104-.014.119.003 0 .018 0 .028.007.004.036.044.054.105.029-.008-.007-.036-.022-.036-.036.014-.015.032-.043.036-.043.054-.097-.025-.097-.015-.133.011-.058.094-.022.119-.112.007-.021.007-.057-.025-.065-.004 0-.004-.007-.004-.007h.004c.025 0 .054.007.075-.036-.072.007-.028-.047-.028-.082 0-.008 0-.015.003-.022a.124.124 0 0 0 .054-.097c-.029.029-.115.061-.108 0 0 0 .007-.05-.065-.036-.122.014-.29-.014-.514-.036-.014 0-.025-.007 0-.014.223-.015.68-.047.68-.195 0-.122-.022-.19-.41-.19s-1.27.14-1.27-.08c0-.11.17-.096.374-.082m-1.269-.029c-.022.036-.065.065-.1.029-.03-.036.003-.043-.033-.104a.663.663 0 0 0 .133.075m.08.241c-.015 0-.015-.043-.037-.043-.021-.007-.018.014-.007.043-.029-.007-.05-.029-.068 0-.015.025-.008.04.01.061.011.015 0 .036-.007.065-.01.029-.05.061-.093.04-.04-.018-.033-.069-.025-.098.014-.028.025-.043.04-.043.024 0 .042-.007.05-.025.01-.036-.018-.05-.044-.065.03-.014.043-.028.03-.036-.022-.021-.048.008-.055-.007-.003-.014.015-.021.025-.029.011-.01.022-.01.04 0l.122.058c.015.007.025.014.025.036 0 .007.008.036-.007.043m.065-.093c-.043 0-.061-.062-.05-.105.014.022.104.05.15.061-.071.015-.053.044-.1.044m.715 1.686c.01.029.04.05.093.072.5.14 1.076-.241 1.381-.148-.395-.144-.65.097-1.028.018.223 0 .46-.046.47-.104-.172.111-.66-.083-.866.05a.124.124 0 0 0-.04.036c-.154.033-.287.119-.287.23 0 .331 1.287.072 1.287.184 0 .083-.251.169-.59.169-.258 0-.7-.17-1.255-.029v-.007c.04-.094.155-.234.105-.295.047-.022.075-.057.079-.093-.029-.033-.061-.04-.09-.047.01-.022-.004-.043-.025-.065-.004 0-.015-.047-.025-.061a.338.338 0 0 0-.108-.072c-.054-.029-.09-.029-.112-.036-.014-.007-.06.014-.068.014-.022-.007-.058-.007-.061.022a.25.25 0 0 0-.083-.036.168.168 0 0 0-.014.133c-.043.007-.087.115-.13.1.015.04.029.048.043.048-.036.071-.054.147-.1.154.021.022.04.036.05.043a.954.954 0 0 0-.022.317c-.075-.083-.194-.274-.276-.317-.072-.043-.072-.075-.072-.154 0-.061.025-.119.021-.177a.244.244 0 0 0-.014-.06c-.01-.044-.065-.073-.097-.065.014.014.036.028.04.064-.015.015-.03.036-.03.036-.014.018-.021.04 0 .061.008.008.008.008.008.015a.085.085 0 0 1-.007.029c0 .014-.004.007-.008 0-.014-.044-.043-.105-.079-.112h-.029v-.014c0-.043-.05-.08-.107-.029.01.007.036.007.043.022-.004.021-.015.046-.015.053-.003.044.036.065.09.065.007 0 .015 0 .015.007 0 .008.003.015.007.022 0 .007-.004.007-.007.007-.087-.036-.123 0-.126.033 0 .007 0 .028.003.036-.028.021-.04.064.015.107 0-.021-.004-.05.021-.057.004 0 .008 0 .015-.007l.021.021c.004.007.018 0 .05-.014.004-.007.008-.007.015 0 .01 0 .018.007.025.014.004.007.004.007 0 .015-.054.054-.043.104.029.118.01.007.014.007.014.022-.007.104-.143.083-.136-.022-.08.119.057.209.158.148.007 0 .01 0 .01.007.008.014.015.036.037.036-.004-.007.003-.022.021-.022.007 0 .011 0 .011.008 0 .032.007.068.047.068-.007-.022 0-.036.01-.036.022 0 0 .155.152.24.025.09.097.141.176.134.025.065.065.119.054.119-.022 0-.202-.022-.248.007a.469.469 0 0 1-.166.057l-.01.015c.007-.008.007-.015.01-.015-.05.007-.097 0-.122-.028-.018-.03-.014-.05-.036-.083a.102.102 0 0 0-.054-.05h-.043c-.025-.03-.086-.03-.115-.015.021.007.047.014.065.043-.008.022-.015.033-.015.04-.014.021-.003.057.1.093.008 0 .019.015.008.015-.018.007-.04.014-.061-.008-.047-.028-.047-.079-.1-.05 0 0-.019.015-.033.015h-.01c-.051-.008-.123.057-.087.111a.08.08 0 0 1 .057-.047l.015.033c.003.05.028.1.14.021.014-.007.014 0 .01.007-.024.05-.104.094-.042.133.003 0 .01.008.025.015-.004.007-.004.007-.004.014-.014.065.058.112.094.104a.112.112 0 0 1-.036-.097.176.176 0 0 0 .036.015c.05-.022.025-.09.057-.112.011-.007.011 0 .011.015.007.018.018.082.083.075.06-.007.09-.057.086-.09 0-.007 0-.007.004-.007.021.014.043.04.032.068.01 0 .036-.021.047-.04.014.026.018.07-.025.105.025-.007.09-.036.104-.104.01.003.021.018.021.032.004 0 .004 0 .008-.007.021.014.06.014.129 0 .004-.007.007 0 .007.007-.007.022-.007.05.007.065 0-.007.018-.036.026-.036.018 0 0 .065.04.104.01-.162.1-.097.204-.165.01 0 .015 0 .01.003-.01.022-.02.044-.046.058.04 0 .155-.05.155-.111 0-.022.075-.094.097-.281h.036c.14-.007.201-.108.342-.115-.036.036-.047.137-.047.19.003.08.1.162.126.184.007.007.003.007-.004.014a.263.263 0 0 0-.1.022c-.112.075-.112-.162-.23-.119-.008.007-.026.018-.033.025-.05-.007-.112.05-.097.101.014-.014.036-.036.072-.043v.029c0 .014.003.036.043.036.025 0 .029-.015.047-.015.007 0 .014.007.014.022 0 .04-.148-.029-.119.09 0 .007.015.029.018.036-.003.04.029.075.094.054-.015-.008-.036-.022-.033-.04h.03c.006 0 .014 0 .017-.021 0 0 0-.008.004-.008.003.008.014.008.014.015 0 .007-.014.014-.014.025 0 .007.007.036.018.036-.011.043.057.093.122.05-.018-.007-.058-.007-.065-.036.015 0 .033-.007.033-.014.01 0 .014-.022.014-.036 0-.01.007-.01.01-.01h.03c.014-.008.021 0 .025.006a.073.073 0 0 0 .09.033c.079-.022.014-.097.075-.112h.047c.057.015.111.029.13 0 .014-.029.007-.147-.062-.183-.04-.022.058-.266-.13-.378.087.022.371.061.414-.007.09.022.19.076.202.097.01.014.018.036-.007.05-.076.05-.065.069-.108.083l-.008.007c-.021-.028-.046-.068-.079-.075-.021-.022-.05-.007-.054 0-.04-.015-.1 0-.118.047.018-.008.054-.011.086-.008a.051.051 0 0 0-.007.022c-.004.014.003.029.018.036.003 0 .003.007.007.007.004.007.004.015-.007.015-.043-.015-.126-.015-.104.035 0 0 .003.022.007.036-.03.018-.04.069-.018.09.007-.021.014-.028.05-.043a.11.11 0 0 1 .022.022c.025.029.068-.043.115-.022.003 0 .003 0 .003.007-.043.015-.086.05-.068.087l.014.025c-.014.029-.003.079.05.093-.003-.007-.014-.036-.006-.057.014 0 .043-.007.046-.007.087-.044.033-.097.061-.126.033-.029.072.057.14-.007.008-.008.022-.036.011-.062 0-.007 0-.007.004-.007.018.018.032.04.065.018-.05-.04.007-.06.025-.097.004-.007.01-.007.014-.007.026.007.061 0 .094-.043-.04.007-.14-.054-.076-.076.08-.029.101-.079.065-.118-.068-.094-.209-.101-.212-.198h.126c.435 0 .712-.119.701-.26-.014-.294-1.309.03-1.309-.19 0-.064.08-.111.18-.147m-.942.043c.014.022.1.047.143.061-.064.015-.05.036-.093.036-.04 0-.058-.057-.05-.097m-.087-.043c-.021.029-.06.065-.097.029-.029-.03 0-.044-.032-.101a.534.534 0 0 0 .13.072m-.141.295c.014-.022.025-.043.036-.043.025 0 .04-.008.047-.026.01-.036-.015-.043-.04-.064.029-.008.04-.015.029-.03-.022-.013-.047.008-.05 0-.008-.013.014-.028.021-.035.007-.014.025-.007.04 0l.111.057c.018.008.025.015.025.03 0 .014.008.042-.007.042-.014 0-.014-.036-.029-.043-.021 0-.021.015-.007.043-.029-.007-.057-.021-.068.004-.014.022-.01.036.01.058.008.014 0 .035-.01.057-.01.029-.043.068-.083.047a.07.07 0 0 1-.025-.097M21.898 8.647a.315.315 0 1 0-.63 0c0 .17.14.31.313.31.176 0 .317-.14.317-.31m-.11-.843a.32.32 0 0 0-.316-.316.319.319 0 0 0-.312.316.315.315 0 1 0 .63 0m.178-.372a.313.313 0 1 0 0-.625.312.312 0 1 0 0 .626m.836-.05c.18 0 .32-.14.32-.316a.315.315 0 0 0-.32-.317.314.314 0 0 0-.313.317c0 .176.14.316.313.316m3.575-.583a.317.317 0 0 0 .446-.007.313.313 0 0 0 0-.442.324.324 0 0 0-.446 0 .328.328 0 0 0 0 .45m-.067-.675a.32.32 0 0 0 0-.443.31.31 0 0 0-.446 0 .313.313 0 0 0 0 .443.31.31 0 0 0 .446 0m-.836-.134a.321.321 0 0 0 0-.45.324.324 0 0 0-.445 0 .321.321 0 0 0 0 .45.324.324 0 0 0 .445 0m-.713.527c.123-.118.123-.316 0-.442s-.323-.126-.446 0a.321.321 0 0 0 0 .45.317.317 0 0 0 .446-.008m-2.005-.435.248.554.324-.385c.01.007.025.014.036.014.029.184.04.504.04.687 0 .22.176.403.402.403a.4.4 0 0 0 .396-.403.401.401 0 0 0-.209-.356 3.294 3.294 0 0 1-.442-.417c.007-.015.014-.025.018-.047l.536.047-.216-.568-.396.345c-.007-.007-.01-.007-.025-.015l-.029-.582-.546.208.367.432a.081.081 0 0 0-.022.047l-.482.036zm3.642.983c.122.19.165.28.176.435-.097-.043-.205-.14-.327-.302l.068.73c.083-.126.158-.216.26-.259-.026.478-.22.673-.382.708a.318.318 0 0 1-.374-.244c-.04-.212.144-.345.334-.155.03-.442-.32-.435-.478-.244.187-.432.108-.712-.266-.942-.237.399-.137.658.165.96-.294-.148-.557.1-.298.431.057-.284.302-.226.36.007.05.187-.137.443-.45.533-.453.133-.597-.155-.705-.392.094-.072.331-.05.586.118l-.219-.715a.743.743 0 0 1-.432.435c-.014-.212.137-.633.137-.633l-.863.356s.4.19.536.352a.707.707 0 0 1-.608-.014l.342.669c.072-.295.223-.478.334-.5.09.252.19.561-.226.78-.292.148-.594.105-.698-.071-.119-.195.014-.421.252-.252-.04-.414-.403-.414-.507-.105.003-.42-.105-.676-.55-.801-.116.427.028.683.46.855-.245-.018-.504.22-.17.515 0-.274.22-.302.346-.126.09.133.068.33-.1.435-.141.09-.41.083-.767-.241.105-.04.223-.018.374.007l-.464-.568c.03.205.015.352-.028.442-.097-.111-.13-.208-.177-.435l-.356.317c.335.212.727.528 1.194 1.172.49-.31 1.37-.73 1.92-.953.547-.227 1.475-.536 2.04-.662-.115-.787-.061-1.283.04-1.665l-.48.022zm6.908 20.025c.122-.338-.5-.716-.565-1.201-.075-.486-.014-.943-.564-1.586-.547-.633-2.428-2.65-2.996-3.287.144-.015.475-.094.827.237.205.19.604.568.978.942.5-1.273 1.115-2.222 1.996-3.211.115-.126.23-.252.349-.37-.324.097-.827.172-1.118.37-.022-.554.021-1.003-.353-1.356.144-.773.018-1.704-1.719-2.859.885.212 1.413 1.01 2.09.403-.612-.022-.626-1.348-2.82-2.453.838-.014 1.496 1.342 2.467.569-.917-.105-1.219-1.734-2.87-2.234.572.065 1.162.339 1.655-.33-.576.14-.91-.385-1.525-.436.226-.715.172-1.157-.076-1.686-.431.029-.87.162-1.19.424-.043-.395-.46-.417-.82-.388.022.169.097.413-.09.45-.295.057-1.27.323-2.032.61-.758.296-1.625.835-1.877 1.011-.154.108-.288-.147-.374-.259-.27.23-.532.522-.338.824-.417.032-.888.147-1.28.457 0 .489.406.967 1.014 1.226-1.021 1.021-.1 1.953-.996 2.837 1.259.05 1.043-1.712 1.676-1.953-.061 1.23-.756 1.457-.756 2.791 0 .709.428 1.482.044 1.953 1.057-.295.784-2.629 1.442-3.33.111.399.043.787-.094 1.187-.367 1.09.047 2.578-.528 3.063 1.075-.107 1.204-1.834 2.089-2.467-.759 1.554-1.546 4.87-2.68 6.528-1.837 2.477-2.92 5.505-4.606 5.505-.744 0-1.302-.456-1.302-1.399 0-2.815 4.837-4.754 4.837-7.753 0-1.334-1.093-1.856-1.773-1.856-.46 0-1.017.234-1.481.612a1.677 1.677 0 0 0-.572-.119c-1.705 0-1.248 3.068-2.737 3.042.586.328 1.608-.316 2.205-1.176-.249 1.99-3.115 1.464-2.899 3.852.406-1.877 4.966-1.597 4.966-4.441 0-.313-.161-.59-.388-.791a1.7 1.7 0 0 1 .964-.303c.55 0 1.043.407 1.043 1.209 0 2.513-4.801 4.635-4.801 7.724 0 .522.15.957.403 1.291-.338.151-.69.087-.982-.259-.025.802 1.115 1.302 1.83.9.158.057.324.093.497.1-.22.597-.95.77-1.335.745 1.18.924 3.23-.288 3.118-1.342.935-.751 1.529-2.046 2.201-2.895a8.444 8.444 0 0 0-.104.59c-.69 1.252-1.334 2.374-1.514 4.024-.151 1.385-.849 2.622-1.816 2.622-.22 0-.565-.277-.73-.137-.302.263-.015.536-.015.788 0 .395-.758.787-.758 1.996 0 .546.32 1.2.197 1.564.31-.158.723-.68.892-1.349.335 1.604-.687 1.532.043 2.953.097-.471.565-.67.853-.471.287.197.154.338-.065.546-.209.212-.403 1.28.564 1.216-.18-.119-.19-.4.288-.504.665-.136.863.173 1.579.173.435 0 .557-.575.91-.575.345 0 .345.266.22.47.567-.154.672-.456.672-.773 0-.316-.26-.51-.065-.64.198-.118.852.015.59.55.334-.064.517-.302.517-.715 0-.41-.47-.647-.91-.58-.071-.25-.456-.384-.805-.384-.784 0-.662.619-1.205.619-.863 0-1.7-1.126-1.7-3.021 0-1.01 1.093-1.27 1.862-1.6.773-.338 2.13-1.173 2.942-2.528.636-1.069.65-2.234.572-3.618 1.09.626 1.219 1.517 1.219 2.168 0 .853-.439 1.194-.788 1.349-.291.133-.388.086-.42.255-.044.216.104.342.23.414.399.197.312.575.424.974.111.417.471 1.054 1.082 1.525.069-.252.05-.654.011-1.18.842.407.166 2.093 1.791 2.093-.298-.176-.216-.618-.043-.672.169-.065.388.104.705.547.313.435.226.399.996.399.766 0 .42-.266.83-.266s.375.47.159.816c.687-.205.895-.726.658-1.266.604-.33.928.14 1.014.471.597-.597 0-1.32-.464-1.363.01-.226-.19-.456-.446-.47-.248-.022-.489-.037-.762-.022-.284.021-.439.42-.77.42-1.017 0-3.035-1.837-3.035-2.64 0-.801 1.928-1.283 1.928-2.52 0-1.622-1.59-2.172-2.928-3.219.471-.532 1.867-.658 2.662-.273.082-.45.374-.338.485-1.115.28.687-.01 1.277.277 1.565.223-.331.798-.281.766-1.13.176.533-.227 1.342.176 1.69.068-.435.327-.51.493-.51.165 0 .305.119.305.37 0 .655-.794.353-.794 1.076 0 .309.388.413.388.618 0 .198-.32.507-.705.237.13.292.381.536.72.536.348 0 .73-.28.877-.647.183.464.043.978-.291 1.046.352.177 1.19.008 1.093-1.06.467.079.72.402.439.97.384-.1.74-.287.74-.7 0-.317-.348-.41-.19-.824m-9.13-14.597c-.44.036-.429-.378-1.206-.568.543-.112 1.248-.385 1.856-.619.115.507-.097 1.14-.65 1.187m3.117 3.308c-.561.249-1.003-.251-1.111-.59-.115-.341-.202-.625-.069-.751.241-.237.324-.428.177-.73-.173-.352-.543-.183-.943-.083.187-.338.205-.575-.05-.543-.302.036-.306.522-.47.464-.166-.054-.076-.338-.076-.489.003-.205.133-.284.345-.367l1.64-.625c.208-.076.356-.12.5.028.111.105.37.245.29.4-.082.161-.424-.187-.66 0-.21.154-.03.309.337.42-.356.212-.73.345-.611.72.1.316.287.399.633.399.18 0 .313.266.467.59.158.316.205.898-.399 1.157m.097-4.57c-.439.345-1.021.028-1.287-.421.604-.255 1.305-.529 1.776-.824-.435.67-.136.971-.489 1.245m36.7 23.62a1.357 1.357 0 0 0 2.716 0c0-.744-.608-1.356-1.356-1.356-.748 0-1.36.612-1.36 1.356m.346 0c0-.554.457-1.01 1.014-1.01a1.01 1.01 0 0 1 0 2.02 1.017 1.017 0 0 1-1.014-1.01m-5.413 1.25a.8.8 0 0 0-.338.507.812.812 0 0 0 .212.68c.166.183.407.317.677.367.273.047.546.014.77-.108.236-.126.388-.32.427-.568.09-.471-.313-.935-.885-1.04-.316-.057-.629 0-.863.162m.615 1.209c-.388-.072-.665-.36-.607-.64a.43.43 0 0 1 .19-.281c.162-.111.381-.147.604-.111.346.06.615.316.615.575 0 .022-.003.043-.007.072-.05.28-.414.453-.795.385m-8.095-20.257c-.424.324-.547.877-.277 1.23.273.345.834.356 1.259.036.23-.177.38-.432.413-.69a.72.72 0 0 0-.136-.54.744.744 0 0 0-.486-.266c-.255-.036-.54.054-.773.23m-.076.795c0-.177.108-.382.292-.522.158-.119.345-.183.514-.162.08.015.18.043.252.133a.4.4 0 0 1 .068.288.72.72 0 0 1-.284.457c-.259.205-.615.22-.77.029a.383.383 0 0 1-.072-.223m5.962 15.999c-.205.197-.324.5-.331.816v.025c0 .31.104.597.302.795a.75.75 0 0 0 .547.252.763.763 0 0 0 .56-.23c.202-.198.324-.493.335-.81.004-.28-.079-.54-.23-.744a.804.804 0 0 0-.626-.335.79.79 0 0 0-.557.23m.525 1.547a.455.455 0 0 1-.302-.148c-.137-.133-.212-.352-.205-.575.003-.234.083-.439.223-.572.068-.06.169-.14.313-.133.284 0 .517.331.51.723a.849.849 0 0 1-.23.572.444.444 0 0 1-.31.133m-.006.342zm-7.163-12.86a.802.802 0 0 0-.457.392c-.208.436.054 1 .576 1.245.288.14.608.169.877.072a.751.751 0 0 0 .457-.396.763.763 0 0 0 .022-.604c-.09-.266-.313-.496-.605-.637a1.14 1.14 0 0 0-.87-.072m.27 1.327c-.353-.169-.536-.517-.41-.78a.406.406 0 0 1 .252-.216.782.782 0 0 1 .611.054c.205.1.363.263.424.443a.425.425 0 0 1-.007.338c-.057.125-.172.183-.259.219a.837.837 0 0 1-.611-.058"/><path fill="#fff" d="M65.055 21.48c.442 1.215 1.32 1.65 1.992 1.341-1.5-.176-.284-2.74-2.215-2.74-.108 0-.212.014-.31.036-.326-.345-.7-.493-1.254-.493-.82 0-2.223.788-2.223 2.417 0 3.499 4.068 3.808 4.068 6.905 0 .906-.684 1.467-1.446 1.467-.687 0-1.237-.766-1.813-1.964-.273-.579-.866-1.355-1.492-2.179.187.133.396.212.604.22a.773.773 0 0 0 .806-.76v-.035c0-.274-.123-.561-.331-.788-.223-.23-.51-.37-.798-.378a.765.765 0 0 0-.802.76v.032c0 .115.021.24.064.352-.877-1.144-1.69-2.262-1.69-2.88 0-.54.374-1.018.838-1.594.018.015.158.09.158.09l.123-.133c.161-.183.503-.554 1.204-1.305l.043-.05-.003.007.169-.184-.435-.349c.115-.262.215-.55.291-.859.137.565.424.92.824.81-.267-.583.27-1.364-.083-2.788.334.554.813.842 1.158.737-.903-.794.27-1.913-.906-3.639.384.133.636.058.809-.133-1.072-.155-.583-1.518-2.464-2.01.468-.083.741-.356.673-.597-.496.352-.932-.673-2.56-.644-.101-.611-.666-1.251-1.306-1.56.122.47.01.898-.115 1.25l-5.304-5.214c-.155-.147-.241-.172-.285-.126-.043.058-.04.148.062.263l4.556 5.714c-.345.115-.68.263-1.036.389a.624.624 0 0 0-.395.59c-.842.42-1.586.942-1.957 1.276-.28.255-.503.317-.255.892.093.22-.198.759.46.36.435-.26 1.417-.795 1.561-.457.08.176-.406.406-.74.532-.335.13-.695.388-.64.514.05.126.316-.007.33.126.022.155.126.288.259.288s.302-.28.41-.18c.108.09-.054.709-.158.87.514-.064.845-.557.86-.942.013-.377.118-.478.197-.525.079-.057.172.406.068.687.273-.058.554-.42.518-1.082.137-.112.277-.191.381-.191.173 0 .518.478 1.007.478.903 0 1.403-.73 1.457-1.075.043-.28.021-.547-.13-.752.324.263.428.67.428.971 0 1.277-2.258 1.881-3.186 2.766a.817.817 0 0 0-.1.093l-1.062-.413-.072.237c-.003.014-.014.05-.06.198-.112.363-.342 1.122-.483 1.557-.003 0-.057.176-.057.176l.093.058c-.629.834-1.132 1.769-1.248 2.733a8.882 8.882 0 0 0-.773-.705c.03-.097.047-.194.058-.295a1.056 1.056 0 0 0-.245-.752.723.723 0 0 0-.489-.244.699.699 0 0 0-.518.198.706.706 0 0 0-.09.09c-.035-.03-.075-.058-.111-.087-.349-.266-.784-.59-1.046-.877-.112-.126-.223-.187-.46-.187-.094 0-.317-.015-.476-.015-.154 0-.244.126-.424.281-.09.076-.327.266-.604.471.133.133.259.273.385.414.068.075.136.154.201.237.076-.054.137-.104.187-.14.112-.097.255-.119.392-.119s.327.104.46.31c.098.14.953 1.272 1.665 2.05a7.65 7.65 0 0 0-.226.085c-.302.126-.989.098-1.291.076-.31-.029-.367-.104-.572.227-.083.118-.18.266-.284.392-.1.125-.18.266.036.625.313.532 1.09 1.924 1.349 2.557.255.626.56.73 1.057.928.496.209 1.338.694 1.438.805l.033-.481c-.148-.148-.619-.331-.799-.389-.176-.06-.226-.147-.01-.147.212 0 .809.212 1.226.388-.126-.478-.576-.992-.845-1.287-.356-.097-.72-.097-.867.014.022.097-.054.227-.201.227-.137 0-.23-.123-.191-.248.047-.148.259-.191.216-.464-.047-.267-.381-.31-.597-.338-.302-.436-.655-1.08-.81-1.335-.158-.259-.064-.406.044-.496.259-.212.798.112 1.877.184.374.018.852.046 1.338.068.14 1.251.644 2.445 2.388 2.88.852.209 1.73.835 2.032 1.651-3.485-.058-4.032 1.298-4.032 2.578 0 1.453 1.227 1.374 1.227 2.464 0 .956-2.928 1.348-3.812 1.481-.748.108-1.176.274-1.536.633-.36.36-.723.709-1.38 1.363 0 0 .28.065.556.05l.497-.64c.147-.219.248-.391.345-.38.097.02.032.183-.086.41l-.407.686c1.72.119 1.834-.518 1.834-.787 0-.26-.428-.436-.18-.605.245-.161.457-.046.655.184.194.226.259.42.734.248 0 0 3.747-1.554 4.222-1.773.424-.187.302-.377.05-.59-.28-.23-.327-.604-.327-.996 0-1.133.68-1.481 1.898-1.46a5.03 5.03 0 0 0-.036.547c0 1.77 2.672 3.499 3.399 3.499.32 0 .755-.241.784.827.018.78.176 1.334.036 2.24-.14.907-.403 1.047-.946 1.428-.543.385-1.057 1.579-1.287 1.83.24.162.503.184.704-.399.166-.485.356-.827.569-.942-.213.529-.367 1.31-.468 1.546.683.12 1.791-.507 1.791-.988 0-.479-.381-.443-.381-.766 0-.14.172-.295.381-.295.273 0 .482.215.503.316.303-.162.493-.464.482-1.169-.007-.273-.018-.56-.028-.856.018.044.036.08.057.12a.8.8 0 0 0 .619.344c.251.022.517-.05.748-.205.266-.18.456-.435.51-.715a.752.752 0 0 0 .018-.176.725.725 0 0 0-.122-.414.784.784 0 0 0-.503-.33 1.138 1.138 0 0 0-.86.183c-.252.161-.428.399-.496.654-.058-.964-.126-1.87-.1-2.233.039-.543.06-.78-.123-.867-.18-.075-.378.227-.64.227-.263 0-1.047-.73-1.047-1.49 0-.765.824-1.747.784-2.793-.014-.331.19-.5.32-.205.158.36.396.841.748 1.237-.22 1.312 1.23 2.596 2.42 1.65-.59.083-.992-.435-1.255-.963.105.014.209.028.32.028.062 0 .123-.007.18-.007.417.518 1.744.471 2.09-.809-.234.27-.712.471-1.058.428.5-.392.76-1.025.76-1.705 0-3.337-4.05-3.729-4.05-6.764 0-1.13.989-1.856 1.672-1.856a1 1 0 0 1 .63.205c-.263.267-.403.67-.382 1.158.108 2.403 4.028 2.277 4.078 3.435.439-1.74-2.481-1.201-2.589-3.546m-10.429-9.203c.19-.363 0-.913.662-.913.327 0 .618.324 1.01.45-.636.057-1.212.197-1.672.463m-3.582 7.355a.687.687 0 0 1-.208.478.383.383 0 0 1-.26.104c-.226-.01-.402-.28-.402-.582v-.047a.685.685 0 0 1 .205-.479.384.384 0 0 1 .266-.1.361.361 0 0 1 .248.13.67.67 0 0 1 .151.496M62.62 36.483a.83.83 0 0 1 .36-.5c.19-.126.414-.176.6-.133a.421.421 0 0 1 .285.184c.079.111.072.237.057.33a.84.84 0 0 1-.363.497c-.33.212-.726.19-.885-.047a.442.442 0 0 1-.054-.33m-2.434-11.181a.427.427 0 0 1 .13-.31c.1-.1.23-.115.32-.115.19.007.395.108.55.274a.808.808 0 0 1 .237.564.438.438 0 0 1-.13.31.444.444 0 0 1-.316.111c-.19 0-.4-.104-.554-.266a.853.853 0 0 1-.237-.568m-6.646-7.545c.19-.59.547-1.762.547-1.762l.615.244c-.18.069-.4.238-.59.414.14.065.392.079.56-.036l-.247.618c-.058-.097-.234-.323-.403-.363-.126.497.183.687.414.799.374.197.618.226.722.05.12-.212-.125-.507-.442-.378-.036-.323.148-.492.36-.492.169 0 .305.154.352.363-.021-.525.216-.932.698-1.086.18.51.032.856-.353 1.23.202-.087.435-.072.529.068.115.176.076.42-.212.575-.065-.338-.457-.363-.568-.147-.112.22.057.42.402.619.403.219.723.09.939-.26-.133-.05-.363-.021-.575.112l.41-.766a.798.798 0 0 0 .258.45c.062-.17.152-.471.026-.745l.884.514c-.298.03-.514.252-.633.392a.841.841 0 0 0 .522 0l-.46.738c.007-.252-.08-.464-.187-.554-.195.356-.152.701.244.942.342.201.604.245.734.04.133-.209-.087-.533-.41-.421-.011-.324.18-.478.392-.471.169.014.295.205.327.42.126-.517.352-.812.881-.91.111.49-.122.9-.59 1.144.209-.064.41-.028.493.119.108.19.05.428-.248.561-.043-.342-.425-.406-.55-.194-.098.18.054.37.406.604.216.14.532.316.903-.043-.123-.133-.407-.17-.518-.17l.413-.52c-.014.197.123.41.245.5.061-.26.097-.526.068-.716l.518.413s-.834.892-1.251 1.349l-5.625-3.244zm5.488 13.83c-.223.314-.604.429-.852.252-.245-.176-.267-.568-.044-.884.22-.317.597-.428.85-.256.247.177.265.572.046.889m1.597-2.525c-.22.31-.601.425-.85.248-.244-.176-.262-.568-.042-.884.226-.317.604-.425.852-.256.245.177.263.576.04.892"/><g fill="#fff"><path d="M102.642 81.257c2.866 0 5.184-2.255 5.184-6.28 0-4.057-2.318-6.311-5.184-6.311s-5.185 2.254-5.185 6.31c0 4.026 2.318 6.28 5.185 6.28m0-15.006c5.28 0 8.083 3.833 8.083 8.727 0 4.863-2.803 8.696-8.083 8.696-5.283 0-8.083-3.833-8.083-8.696 0-4.894 2.8-8.727 8.083-8.727M13.934 59.553h3.21v10.371h12.7v-10.37h3.209v24.119h-3.209V72.625h-12.7v11.048h-3.21v-24.12zm23.565 0h4.391l7.6 20.268 7.636-20.268h4.39v24.12h-3.04V63.606h-.068l-7.532 20.067H48.14l-7.534-20.067h-.066v20.067H37.5v-24.12z"/><path fill-rule="evenodd" d="m82.849 59.058 1.337.046 1.336.185 1.245.321 1.152.417 1.06.552.969.691.829.83.737.967.646 1.108.46 1.244.325 1.429H89.81l-.278-1.106-.46-.968-.6-.83-.69-.691-.831-.6-.922-.414-.967-.324-1.107-.184-1.106-.047-1.384.093-1.197.323-1.107.462-.922.598-.876.738-.691.876-.6 1.014-.461 1.06-.37 1.107-.275 1.197-.138 1.245-.046 1.245.046 1.337.23 1.29.323 1.199.507 1.152.6 1.061.737.968.876.783 1.013.692 1.107.46 1.244.323 1.384.138 1.382-.138 1.244-.277 1.153-.46 1.015-.599.83-.784.737-.875.507-1.015.415-1.106.185-1.152.046-1.292h-7.514V70.72h10.325v12.4h-1.982l-.83-2.95-.83.968-.967.784-1.061.645-1.107.508-1.198.321-1.152.186-1.198.09-1.706-.137-1.567-.323-1.429-.552-1.337-.692-1.153-.923-1.06-1.013-.875-1.153-.738-1.291-.553-1.336-.415-1.43-.276-1.475-.093-1.52.093-1.568.184-1.522.322-1.429.46-1.382.6-1.29.738-1.2.876-1.105.968-.922 1.153-.83 1.244-.645 1.382-.462 1.522-.323 1.66-.092z"/><path d="M119.77 83.673h-2.94l-6.206-16.711h3.071l4.687 13.93h.064l4.558-13.93h2.877l-6.11 16.71zm18.728-5.679c-.485 2.165-2.064 3.255-4.322 3.255-3.643 0-5.287-2.579-5.193-5.48h12.479c.161-4.025-1.644-9.538-7.545-9.538-4.542 0-7.833 3.672-7.833 8.674.162 5.092 2.676 8.768 7.991 8.768 3.74 0 6.387-2.003 7.131-5.679zm-9.515-4.642c.198-2.55 1.906-4.704 4.772-4.704 2.708 0 4.675 2.093 4.8 4.704zm14.733 10.32h2.74v-7.418c0-4.222 1.612-6.736 6.028-6.736v-2.902c-2.967-.097-4.805 1.223-6.124 3.898h-.065v-3.51h-2.579z"/><path fill-rule="evenodd" d="m162.256 66.684 1.216.046 1.082.225.855.36.767.45.585.633.451.675.36.81.226.857.135.991.045 1.037v10.904h-2.703v-11.22l-.135-.991-.271-.81-.495-.63-.676-.497-.858-.316-.945-.135-1.037.09-.946.225-.766.407-.675.494-.542.587-.405.721-.315.856-.18.855-.046.992v9.373h-2.748V67.046h2.568v2.658h.045l.676-.946.72-.766.856-.586.947-.405 1.082-.225 1.127-.091z"/><path d="M207.472 77.994c-.485 2.165-2.064 3.255-4.322 3.255-3.643 0-5.287-2.579-5.193-5.48h12.479c.161-4.025-1.644-9.538-7.545-9.538-4.542 0-7.833 3.672-7.833 8.674.162 5.092 2.676 8.768 7.991 8.768 3.74 0 6.387-2.003 7.131-5.679zm-9.515-4.642c.198-2.55 1.906-4.704 4.772-4.704 2.708 0 4.675 2.093 4.8 4.704z"/><path fill-rule="evenodd" d="m220.806 66.684 1.216.046 1.082.225.856.36.766.45.585.633.451.675.36.81.226.857.136.991.045 1.037v10.904h-2.704v-11.22l-.135-.991-.27-.81-.496-.63-.676-.497-.857-.316-.946-.135-1.037.09-.945.225-.767.407-.675.494-.541.587-.406.721-.315.856-.18.855-.046.992v9.373h-2.748V67.046h2.568v2.658h.045l.676-.946.72-.766.857-.586.947-.405 1.081-.225 1.127-.091z"/><path d="M169.444 66.984h2.582v2.452h.065c1.226-1.871 3.099-2.84 5.39-2.84 2.034 0 3.906.808 4.583 2.84 1.13-1.775 3.1-2.84 5.23-2.84 3.325 0 5.551 1.39 5.551 4.842v12.235h-2.743V72.73c0-2.066-.549-3.713-3.228-3.713-2.646 0-4.357 1.68-4.357 4.26v10.396h-2.743V72.73c0-2.164-.68-3.713-3.132-3.713-3.26 0-4.455 3.003-4.455 4.26v10.396h-2.743v-16.69zm64.364 0h3.325v2.421h-3.325v10.361c0 1.26.354 1.485 2.065 1.485h1.26v2.422h-2.1c-2.84 0-3.97-.581-3.97-3.649V69.405h-2.84v-2.421h2.84V61.98h2.745v5.003z"/></g></svg>